<?xml version="1.0" encoding="utf-8"?>
<!-- Generator: Adobe Illustrator 24.0.1, SVG Export Plug-In . SVG Version: 6.00 Build 0)  -->
<svg version="1.1" id="Layer_1" xmlns="http://www.w3.org/2000/svg" xmlns:xlink="http://www.w3.org/1999/xlink" x="0px" y="0px"
	 viewBox="0 0 464 140" style="enable-background:new 0 0 464 140;" xml:space="preserve">
<style type="text/css">
	.st0{fill:#C12126;}
	.st1{fill:#646569;}
</style>
<g>
	<g>
		<g>
			<path class="st0" d="M351,52.3h-12v6c-4.2-4.7-9.9-7.3-16.4-7.3c-14.2,0-24.5,11.8-24.5,28.1c0,15.7,10.3,27.2,24.4,27.2
				c6.6,0,11.6-2.2,16.5-7.5v7.3c0,10.9-4.3,16.3-13.3,16.3c-4.8,0-9.6-2.4-11.7-6.1c-1.2-2.1-1.6-4.1-2-8.6h-11.8
				c0.1,15.7,9.8,25.5,25.4,25.5c8.9,0,16.7-3.6,21-10.1c3.5-5,4.5-9.6,4.5-19.8v-51H351z M324.8,61.7c8.7,0,14.7,6.8,14.7,16.7
				c0,10.2-5.8,17-14.5,17c-8.8,0-14.5-6.6-14.5-16.8C310.4,68.4,316.1,61.7,324.8,61.7z"/>
			<path class="st1" d="M118.2,52.3v52.3h12v-27c0-11.1,3-15.9,9.7-15.9c5.4,0,8,4.5,8,13.9v29h12v-27c0-11.2,3-15.9,9.7-15.9
				c5.8,0,8,3.9,8,13.8v29.1h12V72.3c0-14-6-21.4-17.6-21.4c-6.4,0-11.7,2.7-15.4,7.7c-3.2-5-8.1-7.7-13.9-7.7
				c-5.2,0-7.9,1.4-12.4,6.2v-4.8L118.2,52.3L118.2,52.3z"/>
			<path class="st1" d="M234.8,52.3v6.1c-5.2-5.3-9.7-7.5-16.3-7.5c-14,0-24.7,11.7-24.7,27.2c0,16.4,10.4,28.1,25,28.1
				c6.3,0,10.4-1.9,16-7.1v5.5h12.1V52.3L234.8,52.3L234.8,52.3z M220.7,61.7c8.8,0,14.9,7,14.9,16.8c0,10.1-6.1,16.9-14.9,16.9
				c-8.5,0-14.5-7.1-14.5-16.9C206.1,68.8,212.3,61.7,220.7,61.7z"/>
			<path class="st1" d="M268.6,52.3h-12.1v52.3h12.1V52.3z M262.6,23.2c-4.5,0-8,3.5-8,7.8s3.6,8,7.8,8c4.4,0,8-3.6,8-8
				S266.9,23.2,262.6,23.2z"/>
			<rect x="279.6" y="9.9" class="st1" width="12.1" height="94.7"/>
			<path class="st0" d="M370.3,52.3h-12.1v30.3c0,8.2,1.5,12.7,5.5,17c4.2,4.3,9.9,6.6,16.8,6.6c7,0,12.7-2.2,16.9-6.6
				c4-4.3,5.5-8.8,5.5-17V52.3h-12.1v30.1c0,8.9-3.2,13-10.3,13c-7,0-10.2-4.1-10.2-13L370.3,52.3L370.3,52.3z"/>
			<path class="st0" d="M410.9,52.3v52.3H423V79.4c0-12.9,3-17.6,11.1-17.6c7.5,0,9.8,3.4,9.8,13.7v29.2H456V72.6
				c0-14.7-6.1-21.6-18.9-21.6c-5.7,0-9.3,1.6-14,6.2v-4.8h-12.2V52.3z"/>
		</g>
		<path class="st0" d="M56.7,56.4c-10.2,0-18.5,8.3-18.5,18.5s8.3,18.5,18.5,18.5s18.5-8.3,18.5-18.5C75.1,64.7,66.9,56.4,56.7,56.4
			z M27.9,74.9c0-15.9,12.9-28.8,28.8-28.8S85.5,59,85.5,74.9c0,1.1-0.1,2.1-0.2,3.1c-0.2,2.8,1.8,4.9,4.6,4.9
			c4.7,0,5.2-6.1,5.2-8.1c0-21.3-17.2-38.5-38.5-38.5S18.1,53.5,18.1,74.8s17.2,38.5,38.5,38.5c11.3,0,21.4-4.9,28.5-12.6l7.9,6.6
			c-8.9,10-21.9,16.3-36.4,16.3c-27,0-48.8-21.9-48.8-48.8c0-27,21.9-48.8,48.8-48.8c27,0,48.8,21.9,48.8,48.8
			c0,10.8-5.2,19.6-15.5,19.6c-4.6,0-7.3-2.1-8.9-4.4c-5.1,8.2-14.1,13.6-24.5,13.6C40.8,103.7,27.9,90.8,27.9,74.9z M56.7,66.4
			c4.7,0,8.5,3.8,8.5,8.5s-3.8,8.5-8.5,8.5s-8.5-3.8-8.5-8.5C48.2,70.2,52,66.4,56.7,66.4z"/>
	</g>
</g>
</svg>
